<?xml version="1.0" encoding="utf-8"?>
<!-- Generator: Adobe Illustrator 25.3.1, SVG Export Plug-In . SVG Version: 6.00 Build 0)  -->
<svg version="1.1" id="Livello_2" xmlns="http://www.w3.org/2000/svg" xmlns:xlink="http://www.w3.org/1999/xlink" x="0px" y="0px"
	 viewBox="0 0 595.28 841.89" style="enable-background:new 0 0 595.28 841.89;" xml:space="preserve">
<style type="text/css">
	.st0{stroke:#000000;stroke-width:2;stroke-miterlimit:10;}
	.st1{fill:#FFFFFF;stroke:#FFFFFF;stroke-width:0.75;stroke-miterlimit:10;}
	.st2{fill:#010202;stroke:#000000;stroke-width:3;stroke-miterlimit:10;}
</style>
<circle class="st0" cx="225" cy="351" r="153"/>
<g id="Livello_1">
	<path class="st1" d="M242.77,360.19h-9.03V405h-9.03v-53.77h54.15c0,0,35.6-0.5,36.1-26.89c0.5-26.39-36.1-26.89-36.1-26.89
		l-143.37-0.5V288l145.63,0.5c0,0,42.27-0.5,42.87,35.85c0.6,36.34-42.87,35.85-42.87,35.85h-42.87"/>
	<rect x="135" y="342.27" class="st1" width="72" height="8.96"/>
	<rect x="135" y="396.04" class="st1" width="72" height="8.96"/>
	<g id="XMLID_1_">
		<polyline class="st1" points="266.86,360.19 279,360.19 324,405 311.61,405 266.86,360.19 		"/>
	</g>
	<path class="st2" d="M266.86,360"/>
	<path class="st1" d="M144,297"/>
</g>
</svg>
